<svg xmlns="http://www.w3.org/2000/svg" viewBox="0 0 80.04255 80.04255"><defs><style>.cls-1{fill:#c64700;}.cls-2{fill:#f9f9f9;}</style></defs><title>close</title><g id="Слой_2" data-name="Слой 2"><g id="UI"><g id="Слой_92" data-name="Слой 92"><circle class="cls-1" cx="40.02128" cy="40.02128" r="40.02128"/><path class="cls-2" d="M48.37272,40.0213l8.67248-8.67261a5.467,5.467,0,0,0,0-7.70892l-.64245-.6424a5.46693,5.46693,0,0,0-7.70887,0l-8.6726,8.67255-8.67249-8.67255a5.46706,5.46706,0,0,0-7.709,0l-.64246.6424a5.467,5.467,0,0,0,0,7.70892L31.67,40.0213l-8.67261,8.67255a5.467,5.467,0,0,0,0,7.70892l.64246.64246a5.46717,5.46717,0,0,0,7.709,0l8.67249-8.67261,8.6726,8.67261a5.467,5.467,0,0,0,7.70887,0l.64245-.64246a5.467,5.467,0,0,0,0-7.70892Z"/></g></g></g></svg>