<svg xmlns="http://www.w3.org/2000/svg" viewBox="0 0 113.38583 113.38583"><defs><style>.cls-1{opacity:0.8;}.cls-2{fill:#c64700;}.cls-3{fill:none;}.cls-4{fill:#f9f9f9;}</style></defs><title>exit</title><g id="Слой_2" data-name="Слой 2"><g id="UI"><g id="exit" class="cls-1"><rect class="cls-2" width="113.38583" height="113.38583"/><polygon class="cls-3" points="26.243 26.121 26.243 86.413 69.682 86.413 69.682 73.033 68.782 73.033 68.782 84.13 28.015 84.13 28.015 27.546 68.782 27.546 68.782 41.459 69.682 41.459 69.682 26.121 26.243 26.121"/><path class="cls-4" d="M69.682,86.4133H26.24332V26.12149H69.682V41.4589h6.67047V22.59372c0-3.16491-1.84845-5.73059-4.1286-5.73059H23.70145c-2.28016,0-4.12854,2.56568-4.12854,5.73059V89.9412c0,3.16479,1.84838,5.73046,4.12854,5.73046H72.22391c2.28015,0,4.1286-2.56567,4.1286-5.73046V73.03336H69.682Z"/><path class="cls-4" d="M101.9971,54.47336l-7.06732-4.71179-7.06732-4.71173c-1.86823-1.24555-4.20356.3114-4.20356,2.80249V52.0759H53.03921a2.94481,2.94481,0,0,0-2.93615,2.93616v4.42553a2.94481,2.94481,0,0,0,2.93615,2.93616H83.6589v4.32556c0,2.49115,2.33533,4.0481,4.20356,2.80255l7.06732-4.71179,7.06732-4.71173A3.50315,3.50315,0,0,0,101.9971,54.47336Z"/></g></g></g></svg>