<svg xmlns="http://www.w3.org/2000/svg" viewBox="0 0 113.38583 113.38583"><defs><style>.cls-1{opacity:0.8;}.cls-2{fill:#c64700;}.cls-3{fill:none;}.cls-4{fill:#f9f9f9;}.cls-5{fill:#fcfcfc;}.cls-6{fill:#fff;}</style></defs><title>game_1</title><g id="Слой_2" data-name="Слой 2"><g id="UI"><g id="game" class="cls-1"><rect class="cls-2" width="113.38583" height="113.38583"/><polygon class="cls-3" points="18.187 23.785 18.187 67.613 46.46 67.613 46.46 65.954 19.975 65.954 19.975 24.821 61.108 24.821 61.108 42.878 62.015 42.878 62.015 23.785 18.187 23.785"/><path class="cls-4" d="M18.18728,67.61347V23.78516H62.01546V42.878h6.73023V21.2207a4.16569,4.16569,0,0,0-4.16559-4.16577H15.62264a4.16569,4.16569,0,0,0-4.16559,4.16577V70.178a4.16563,4.16563,0,0,0,4.16559,4.16565h30.837V67.61347Z"/><path class="cls-5" d="M46.3434,31.13971H34.66256a1.21633,1.21633,0,0,0-1.21277,1.21277v6.25531a7.04852,7.04852,0,0,0,5.617,6.879v-.1449a.67217.67217,0,0,1,.67023-.67023h1.53192a.67221.67221,0,0,1,.67023.67023v.14484a7.0485,7.0485,0,0,0,5.617-6.87891V32.35248A1.21637,1.21637,0,0,0,46.3434,31.13971Z"/><path class="cls-5" d="M41.26894,44.67163H39.737a.67217.67217,0,0,0-.67023.67023V56.3c.45691-.04437.9328-.07514,1.43616-.07514s.97931.03077,1.43622.07514V45.34186A.67221.67221,0,0,0,41.26894,44.67163Z"/><path class="cls-5" d="M39.06679,56.3c-1.9909.19336-3.44677.76861-3.44677,1.45672,0,.84607,2.18615,1.53193,4.88293,1.53193s4.883-.68586,4.883-1.53193c0-.68811-1.45582-1.26336-3.44678-1.45672-.45691-.04437-.93286-.07514-1.43622-.07514S39.5237,56.25562,39.06679,56.3Z"/><path class="cls-4" d="M100.33219,46.2035H53.76178a3.96258,3.96258,0,0,0-3.96248,3.96266V96.73645a3.96251,3.96251,0,0,0,3.96248,3.96254h46.57041a3.96252,3.96252,0,0,0,3.96249-3.96254V50.16616A3.96259,3.96259,0,0,0,100.33219,46.2035ZM97.8926,94.29692H56.20137V52.60557H97.8926Z"/><path class="cls-6" d="M79.48092,67.86786a6.617,6.617,0,1,0-7.2356,0A5.76206,5.76206,0,0,0,67.012,73.58655V87.395a1.21634,1.21634,0,0,0,1.21277,1.21277H83.50142A1.21633,1.21633,0,0,0,84.71419,87.395V73.58655A5.76206,5.76206,0,0,0,79.48092,67.86786Z"/></g></g></g></svg>