<svg xmlns="http://www.w3.org/2000/svg" viewBox="0 0 112.59574 112.59574"><defs><style>.cls-1{fill:#e99d70;}.cls-2{fill:#fcfcfc;}</style></defs><title>help</title><g id="Слой_2" data-name="Слой 2"><g id="UI"><g id="Слой_91" data-name="Слой 91"><circle class="cls-1" cx="56.29787" cy="56.29787" r="56.29787"/><path class="cls-2" d="M49.95,67.95589a23.49749,23.49749,0,0,1,1.32812-8.71973,17.87826,17.87826,0,0,1,4.86328-6.39258,24.88047,24.88047,0,0,0,4.707-5.123,8.04451,8.04451,0,0,0,1.17188-4.168q0-6.61085-6.09375-6.61231a6.17109,6.17109,0,0,0-4.62891,1.78125,7.00029,7.00029,0,0,0-1.8164,4.91407H38.15309q.07764-7.46778,4.82422-11.69141,4.74609-4.22168,12.94922-4.22266,8.28077,0,12.85156,4.00782,4.57032,4.00927,4.57031,11.32031A13.78641,13.78641,0,0,1,71.864,49.325a25.88106,25.88106,0,0,1-5.19531,6.54883L63.50465,58.8846a10.72619,10.72619,0,0,0-3.39843,6.68652L59.95,67.95589ZM48.81715,79.92854a5.68576,5.68576,0,0,1,1.77735-4.30273,6.96162,6.96162,0,0,1,9.10156,0,6.07372,6.07372,0,0,1,.03906,8.54688,6.339,6.339,0,0,1-4.58984,1.67382,6.33584,6.33584,0,0,1-4.58984-1.67382A5.6401,5.6401,0,0,1,48.81715,79.92854Z"/></g></g></g></svg>