<svg xmlns="http://www.w3.org/2000/svg" viewBox="0 0 113.38583 113.38583"><defs><style>.cls-1{opacity:0.8;}.cls-2{fill:#c64700;}.cls-3{fill:#f9f9f9;}</style></defs><title>hide</title><g id="Слой_2" data-name="Слой 2"><g id="UI"><g id="hide" class="cls-1"><rect class="cls-2" width="113.38583" height="113.38583"/><path class="cls-3" d="M29.65846,58.67677l27.666-27.666L84.99079,58.67707A4.252,4.252,0,1,0,91.004,52.66389L60.395,22.05494a4.43668,4.43668,0,0,0-6.14081-.00037l-30.60895,30.609a4.252,4.252,0,0,0,6.01319,6.01319Z"/><path class="cls-3" d="M91.05311,80.39521l-30.609-30.609a4.43642,4.43642,0,0,0-6.1408-.0003L23.69441,80.39491a4.252,4.252,0,0,0,6.01318,6.01318l27.666-27.666L85.03993,86.40839a4.252,4.252,0,1,0,6.01318-6.01318Z"/></g></g></g></svg>