<svg xmlns="http://www.w3.org/2000/svg" viewBox="0 0 113.38583 113.38583"><defs><style>.cls-1{opacity:0.8;}.cls-2{fill:#c64700;}.cls-3{fill:none;stroke:#fff;stroke-linecap:round;stroke-linejoin:round;stroke-width:8px;}.cls-4{fill:#f9f9f9;}.cls-5{fill:#cc672e;}</style></defs><title>mute</title><g id="Слой_2" data-name="Слой 2"><g id="UI"><g id="mute" class="cls-1"><rect class="cls-2" width="113.38583" height="113.38583"/><path class="cls-3" d="M72.26738,35.45888c9.36682,13.66516,9.01617,27.0597,0,40.21277"/><path class="cls-3" d="M82.86313,26.65036c14.30953,20.73634,13.77385,41.062,0,61.02128"/><path class="cls-4" d="M61.50172,29.96073c0-7.00312-5.09326-11.38007-9.16785-7.87848L36.92036,35.328l-.03815.03277,24.61951,17.8833Z"/><path class="cls-4" d="M18.99079,38.01206a2.94477,2.94477,0,0,0-2.93615,2.93615v31.4043a2.94477,2.94477,0,0,0,2.93615,2.93616h15.2674l2.66217,2.28778L52.33387,90.82224c4.07459,3.50152,9.16785-.87543,9.16785-7.87848V63.75467L26.06239,38.01206Z"/><path class="cls-5" d="M103.28431,83.59433,61.50172,53.24405,36.88221,35.36075l-12.5636-9.126a4.252,4.252,0,0,0-4.9978,6.88031l6.74158,4.897L61.50172,63.75467l36.78479,26.72a4.252,4.252,0,1,0,4.9978-6.88031Z"/></g></g></g></svg>