<svg xmlns="http://www.w3.org/2000/svg" viewBox="0 0 113.38583 113.38583"><defs><style>.cls-1{opacity:0.8;}.cls-2{fill:#c64700;}.cls-3{fill:#fff;}</style></defs><title>game</title><g id="Слой_2" data-name="Слой 2"><g id="UI"><g id="game" class="cls-1"><rect class="cls-2" width="113.38583" height="113.38583"/><path class="cls-3" d="M75.16921,34.8631a21.59989,21.59989,0,0,0-10.04663,2.46673,21.70467,21.70467,0,1,0-11.144,14.55591,21.67386,21.67386,0,0,0,.27961,10.483A21.70656,21.70656,0,1,0,69.0226,77.37885,21.70218,21.70218,0,1,0,75.16921,34.8631Z"/><path class="cls-2" d="M48.06185,37.35352H39.80257L38.23226,42.064H33.22347l8.51025-22.86182H46.099L54.65608,42.064H49.6473Zm-6.98731-3.81543h5.71533l-2.87353-8.55762Z"/><path class="cls-2" d="M68.31136,68.19141V45.32959h8.0083q4.16016,0,6.312,1.59375a5.4509,5.4509,0,0,1,2.15088,4.67139,5.16928,5.16928,0,0,1-.86328,2.96,4.98944,4.98944,0,0,1-2.40283,1.876,4.82969,4.82969,0,0,1,2.77148,1.77442,5.24584,5.24584,0,0,1,1.0127,3.26611,6.03343,6.03343,0,0,1-2.104,4.99317,9.47322,9.47322,0,0,1-5.99805,1.72705ZM73.0223,54.90772h3.48535q3.56469-.06226,3.56445-2.8418a2.62641,2.62641,0,0,0-.90283-2.23779,4.75167,4.75167,0,0,0-2.84961-.68262H73.0223Zm0,3.32861v6.1709h4.03515a3.894,3.894,0,0,0,2.59863-.793,2.71885,2.71885,0,0,0,.93409-2.19043q0-3.13989-3.25-3.1875Z"/><path class="cls-2" d="M57.57991,87.19336a8.09055,8.09055,0,0,1-2.72412,5.80957,9.56907,9.56907,0,0,1-6.477,2.11963,8.60262,8.60262,0,0,1-6.9165-2.95947q-2.52027-2.95972-2.52-8.126V82.63965a13.69956,13.69956,0,0,1,1.16162-5.80957,8.70464,8.70464,0,0,1,3.3208-3.85449,9.3029,9.3029,0,0,1,5.01709-1.34278,9.31958,9.31958,0,0,1,6.37451,2.11963,8.69493,8.69493,0,0,1,2.79492,5.95117H52.90071a4.77438,4.77438,0,0,0-1.23242-3.21093,4.565,4.565,0,0,0-3.22656-.99707,4.00228,4.00228,0,0,0-3.52539,1.688,9.45932,9.45932,0,0,0-1.20117,5.23633v1.727a10.125,10.125,0,0,0,1.12256,5.41748,3.92919,3.92919,0,0,0,3.541,1.71143,4.65067,4.65067,0,0,0,3.25781-.99707,4.50393,4.50393,0,0,0,1.23291-3.08545Z"/></g></g></g></svg>